<svg width="160" height="54" viewBox="0 0 160 54" fill="none" xmlns="http://www.w3.org/2000/svg">
<path d="M15.1719 10.0703C15.1198 10.2526 15.0677 10.487 15.0156 10.7734C14.9766 11.0469 14.931 11.3529 14.8789 11.6914C15.8294 11.7695 16.8125 11.8737 17.8281 12.0039C18.8568 12.1341 19.8594 12.3034 20.8359 12.5117C21.8125 12.707 22.7435 12.9414 23.6289 13.2148C24.5273 13.4753 25.3346 13.7747 26.0508 14.1133L25.8945 14.4844C24.4622 14.3021 23.0299 14.1784 21.5977 14.1133C20.1784 14.0352 18.7591 13.9961 17.3398 13.9961C16.8841 13.9961 16.4219 14.0091 15.9531 14.0352C15.4974 14.0612 15.0352 14.0872 14.5664 14.1133C14.4622 15.0768 14.3581 16.151 14.2539 17.3359C14.1497 18.5078 14.0521 19.7448 13.9609 21.0469C13.8828 22.349 13.8112 23.6966 13.7461 25.0898C13.694 26.4701 13.6549 27.8568 13.6289 29.25C13.6029 30.6302 13.5964 31.9909 13.6094 33.332C13.6354 34.6602 13.6875 35.9297 13.7656 37.1406C13.8438 38.3385 13.9544 39.4518 14.0977 40.4805C14.2409 41.5091 14.4232 42.401 14.6445 43.1562C14.6706 43.2734 14.7031 43.3906 14.7422 43.5078C14.7943 43.638 14.8203 43.7617 14.8203 43.8789C14.8203 44.0872 14.7682 44.25 14.6641 44.3672C14.5599 44.4974 14.3971 44.5625 14.1758 44.5625C13.8893 44.5625 13.6029 44.4844 13.3164 44.3281C13.043 44.1719 12.7956 44.0221 12.5742 43.8789C12.1836 43.6185 11.8841 43.2018 11.6758 42.6289C11.4674 42.056 11.3177 41.4375 11.2266 40.7734C11.1354 40.1094 11.0833 39.4583 11.0703 38.8203C11.0573 38.1823 11.0508 37.6549 11.0508 37.2383C11.0508 36.2487 11.0703 35.1549 11.1094 33.957C11.1615 32.7591 11.2266 31.5026 11.3047 30.1875C11.3958 28.8594 11.5065 27.4987 11.6367 26.1055C11.7669 24.6992 11.9232 23.3125 12.1055 21.9453C12.2878 20.5651 12.4896 19.2174 12.7109 17.9023C12.9453 16.5872 13.2057 15.3503 13.4922 14.1914C12.5286 14.2565 11.5651 14.3477 10.6016 14.4648C9.65104 14.569 8.72005 14.6992 7.80859 14.8555C6.91016 15.0117 6.04427 15.1875 5.21094 15.3828C4.39062 15.5651 3.62891 15.7734 2.92578 16.0078C2.76953 16.0859 2.60026 16.125 2.41797 16.125C2.04036 16.125 1.85156 15.9362 1.85156 15.5586C1.85156 15.2982 1.92318 15.0312 2.06641 14.7578C2.20964 14.4844 2.35286 14.2435 2.49609 14.0352C2.71745 13.7227 3.04948 13.4492 3.49219 13.2148C3.92188 12.9674 4.41667 12.7526 4.97656 12.5703C5.54948 12.375 6.14844 12.2188 6.77344 12.1016C7.41146 11.9714 8.02995 11.8672 8.62891 11.7891C9.22786 11.6979 9.78776 11.6393 10.3086 11.6133C10.8424 11.5742 11.2786 11.5547 11.6172 11.5547C12.0078 11.5547 12.418 11.5677 12.8477 11.5938C13.2773 11.6068 13.7201 11.6263 14.1758 11.6523C14.3841 11.0013 14.599 10.4219 14.8203 9.91406L15.1719 10.0703ZM27.0859 27.7656C27.0859 27.9089 27.0339 28.0391 26.9297 28.1562C26.8255 28.2604 26.7018 28.3125 26.5586 28.3125C26.4414 28.3125 26.3177 28.2799 26.1875 28.2148C26.0573 28.1367 25.9076 28.0521 25.7383 27.9609C25.582 27.8698 25.3932 27.7917 25.1719 27.7266C24.9635 27.6484 24.7227 27.6094 24.4492 27.6094C23.8112 27.6094 23.2383 27.8112 22.7305 28.2148C22.2357 28.6055 21.8125 29.0938 21.4609 29.6797C21.1224 30.2656 20.862 30.8906 20.6797 31.5547C20.4974 32.2188 20.4062 32.8177 20.4062 33.3516C20.4062 33.7292 20.4388 34.1003 20.5039 34.4648C20.569 34.8164 20.6797 35.1419 20.8359 35.4414C21.0052 35.7279 21.2331 35.9622 21.5195 36.1445C21.806 36.3138 22.1706 36.3984 22.6133 36.3984C23.082 36.3984 23.5312 36.3138 23.9609 36.1445C24.3906 35.9622 24.7943 35.7279 25.1719 35.4414C25.1849 35.0247 25.25 34.5885 25.3672 34.1328C25.4974 33.6641 25.6602 33.2083 25.8555 32.7656C26.0508 32.3099 26.2721 31.8802 26.5195 31.4766C26.7799 31.0729 27.0469 30.7148 27.3203 30.4023L27.5742 30.5586C27.431 31.0013 27.3268 31.457 27.2617 31.9258C27.1966 32.3945 27.1641 32.8568 27.1641 33.3125C27.1641 33.7812 27.2031 34.224 27.2812 34.6406C27.3594 35.0573 27.4961 35.4219 27.6914 35.7344C27.8867 36.0339 28.1536 36.2747 28.4922 36.457C28.8307 36.6263 29.2669 36.7109 29.8008 36.7109C30.4518 36.7109 31.0508 36.5612 31.5977 36.2617C32.1445 35.9622 32.6263 35.5846 33.043 35.1289L33.1992 35.207C32.9648 35.6628 32.6589 36.099 32.2812 36.5156C31.9036 36.9323 31.4805 37.3099 31.0117 37.6484C30.556 37.974 30.0677 38.2344 29.5469 38.4297C29.026 38.625 28.5117 38.7227 28.0039 38.7227C27.2878 38.7227 26.7018 38.5143 26.2461 38.0977C25.7904 37.694 25.4779 37.1797 25.3086 36.5547C24.7617 37.1016 24.1497 37.5638 23.4727 37.9414C22.8086 38.306 22.1055 38.4883 21.3633 38.4883C20.8164 38.4883 20.3281 38.3841 19.8984 38.1758C19.4818 37.9805 19.1302 37.7135 18.8438 37.375C18.5573 37.0365 18.3359 36.6393 18.1797 36.1836C18.0365 35.7148 17.9648 35.2266 17.9648 34.7188C17.9648 34.1328 18.056 33.5339 18.2383 32.9219C18.4336 32.2969 18.694 31.6849 19.0195 31.0859C19.3581 30.487 19.7552 29.9206 20.2109 29.3867C20.6667 28.8529 21.1615 28.3841 21.6953 27.9805C22.2422 27.5768 22.8151 27.2578 23.4141 27.0234C24.013 26.7891 24.625 26.6719 25.25 26.6719C25.3932 26.6719 25.569 26.6914 25.7773 26.7305C25.9857 26.7565 26.1875 26.8086 26.3828 26.8867C26.5781 26.9648 26.7409 27.0755 26.8711 27.2188C27.0143 27.362 27.0859 27.5443 27.0859 27.7656ZM49.1367 35.207C48.8893 35.6758 48.6224 36.125 48.3359 36.5547C48.0625 36.9844 47.75 37.362 47.3984 37.6875C47.0469 38.013 46.6497 38.2734 46.207 38.4688C45.7643 38.6641 45.2565 38.7617 44.6836 38.7617C44.0326 38.7617 43.4727 38.599 43.0039 38.2734C42.5352 37.9609 42.1315 37.5443 41.793 37.0234C41.4674 36.4896 41.2005 35.8841 40.9922 35.207C40.7969 34.5299 40.6341 33.8398 40.5039 33.1367C40.3737 32.4336 40.276 31.7435 40.2109 31.0664C40.1458 30.3763 40.0872 29.7578 40.0352 29.2109C39.7878 29.4062 39.4883 29.7839 39.1367 30.3438C38.7852 30.8906 38.4271 31.5352 38.0625 32.2773C37.6979 33.0195 37.3464 33.8268 37.0078 34.6992C36.6823 35.5716 36.4154 36.431 36.207 37.2773C36.168 37.4596 36.1029 37.6484 36.0117 37.8438C35.9336 38.0391 35.8294 38.2148 35.6992 38.3711C35.582 38.5404 35.4388 38.6771 35.2695 38.7812C35.1003 38.8984 34.9115 38.957 34.7031 38.957C34.3646 38.957 34.1172 38.8398 33.9609 38.6055C33.8177 38.3711 33.7135 38.1042 33.6484 37.8047C33.2708 36.151 33.0039 34.569 32.8477 33.0586C32.7044 31.5482 32.6328 30.0378 32.6328 28.5273C32.6328 28.1628 32.6914 27.8503 32.8086 27.5898C32.9388 27.3164 33.1081 27.0951 33.3164 26.9258C33.5247 26.7435 33.7721 26.6133 34.0586 26.5352C34.3451 26.444 34.6445 26.3984 34.957 26.3984C34.9961 26.3984 35.0547 26.3984 35.1328 26.3984C35.224 26.3984 35.3086 26.4115 35.3867 26.4375C35.4648 26.4505 35.5299 26.4766 35.582 26.5156C35.6341 26.5547 35.6536 26.6068 35.6406 26.6719C35.3021 28.3776 35.1393 30.1159 35.1523 31.8867C35.1654 33.6445 35.2565 35.3372 35.4258 36.9648C35.569 36.3138 35.7773 35.5781 36.0508 34.7578C36.3372 33.9245 36.6628 33.0911 37.0273 32.2578C37.4049 31.4115 37.8086 30.6107 38.2383 29.8555C38.681 29.0872 39.1302 28.4427 39.5859 27.9219C39.8073 27.6745 40.0286 27.4661 40.25 27.2969C40.4844 27.1146 40.7708 27.0234 41.1094 27.0234C41.3047 27.0234 41.4674 27.0625 41.5977 27.1406C41.7279 27.2188 41.832 27.3164 41.9102 27.4336C42.0013 27.5508 42.0664 27.6875 42.1055 27.8438C42.1576 27.987 42.1966 28.1302 42.2227 28.2734C42.2878 28.651 42.3529 29.1393 42.418 29.7383C42.4831 30.3372 42.5612 30.9753 42.6523 31.6523C42.7565 32.3294 42.8802 33.013 43.0234 33.7031C43.1667 34.3802 43.349 34.9987 43.5703 35.5586C43.7917 36.1055 44.0586 36.5547 44.3711 36.9062C44.6836 37.2578 45.0547 37.4336 45.4844 37.4336C45.8359 37.4336 46.1745 37.3685 46.5 37.2383C46.8385 37.0951 47.1576 36.9193 47.457 36.7109C47.7565 36.4896 48.0365 36.2422 48.2969 35.9688C48.5573 35.6823 48.7917 35.4023 49 35.1289L49.1367 35.207ZM60.4648 43.918C60.4648 44.6602 60.3932 45.4023 60.25 46.1445C60.1068 46.8867 59.8919 47.6029 59.6055 48.293C59.332 48.9961 58.987 49.6471 58.5703 50.2461C58.1536 50.8581 57.6784 51.3854 57.1445 51.8281C56.6107 52.2708 56.0117 52.6224 55.3477 52.8828C54.6966 53.1432 53.987 53.2734 53.2188 53.2734C52.5026 53.2734 51.8255 53.1302 51.1875 52.8438C50.5495 52.5573 49.9896 52.1732 49.5078 51.6914C49.0391 51.2096 48.668 50.6432 48.3945 49.9922C48.1211 49.3542 47.9844 48.6771 47.9844 47.9609C47.9844 47.1797 48.1406 46.431 48.4531 45.7148C48.7786 44.9987 49.2018 44.3411 49.7227 43.7422C50.2435 43.1432 50.8294 42.6159 51.4805 42.1602C52.1445 41.7044 52.8216 41.3464 53.5117 41.0859L53.6289 41.3203C52.3659 42.0104 51.3893 42.9414 50.6992 44.1133C50.0091 45.2852 49.6641 46.5938 49.6641 48.0391C49.6641 48.625 49.7422 49.1849 49.8984 49.7188C50.0677 50.2656 50.3151 50.7474 50.6406 51.1641C50.9661 51.5807 51.3698 51.9128 51.8516 52.1602C52.3464 52.4206 52.9128 52.5508 53.5508 52.5508C54.4362 52.5508 55.1719 52.3099 55.7578 51.8281C56.3438 51.3464 56.8125 50.7409 57.1641 50.0117C57.5156 49.2956 57.763 48.5143 57.9062 47.668C58.0625 46.8216 58.1406 46.0273 58.1406 45.2852C58.1406 44.4909 58.0755 43.7096 57.9453 42.9414C57.8281 42.1732 57.6784 41.4049 57.4961 40.6367C57.3268 39.8685 57.151 39.1003 56.9688 38.332C56.7865 37.5638 56.6367 36.7891 56.5195 36.0078C56.2461 36.3333 55.9531 36.6458 55.6406 36.9453C55.3281 37.2318 54.9896 37.4857 54.625 37.707C54.2734 37.9154 53.8958 38.0781 53.4922 38.1953C53.0885 38.3255 52.6654 38.3906 52.2227 38.3906C51.5586 38.3906 50.9727 38.2669 50.4648 38.0195C49.9701 37.7852 49.5534 37.4596 49.2148 37.043C48.8763 36.6263 48.6159 36.1445 48.4336 35.5977C48.2643 35.0508 48.1797 34.4648 48.1797 33.8398C48.1797 33.1367 48.2773 32.4466 48.4727 31.7695C48.668 31.0924 48.9414 30.4544 49.293 29.8555C49.6445 29.2565 50.0612 28.6966 50.543 28.1758C51.0247 27.6549 51.5456 27.1992 52.1055 26.8086L52.3398 26.9258C51.7799 27.7331 51.3372 28.6055 51.0117 29.543C50.6992 30.4674 50.543 31.418 50.543 32.3945C50.543 32.8112 50.5885 33.2604 50.6797 33.7422C50.7708 34.224 50.9141 34.6667 51.1094 35.0703C51.3177 35.474 51.5911 35.8125 51.9297 36.0859C52.2812 36.3464 52.7109 36.4766 53.2188 36.4766C53.8307 36.4766 54.4036 36.3464 54.9375 36.0859C55.4714 35.8125 55.9596 35.4674 56.4023 35.0508C56.3633 34.569 56.3438 34.0872 56.3438 33.6055C56.3438 32.9414 56.3893 32.2513 56.4805 31.5352C56.5716 30.819 56.7344 30.1354 56.9688 29.4844C57.2161 28.8203 57.5482 28.2214 57.9648 27.6875C58.3815 27.1406 58.9219 26.6979 59.5859 26.3594L59.7422 26.4375C59.4297 26.763 59.1693 27.1276 58.9609 27.5312C58.7526 27.9219 58.5833 28.332 58.4531 28.7617C58.3359 29.1914 58.2513 29.6341 58.1992 30.0898C58.1602 30.5326 58.1406 30.9688 58.1406 31.3984C58.1406 32.5964 58.2578 33.7096 58.4922 34.7383C58.7396 35.7669 59.0065 36.776 59.293 37.7656C59.5924 38.7552 59.8594 39.7448 60.0938 40.7344C60.3411 41.737 60.4648 42.7982 60.4648 43.918ZM72.7695 32.2383C72.7695 33.1497 72.6198 33.9961 72.3203 34.7773C72.0208 35.5586 71.5977 36.2357 71.0508 36.8086C70.5039 37.3815 69.8464 37.8307 69.0781 38.1562C68.3229 38.4818 67.4831 38.6445 66.5586 38.6445C65.7383 38.6445 64.9961 38.4883 64.332 38.1758C63.681 37.8763 63.1211 37.4661 62.6523 36.9453C62.1836 36.4245 61.8255 35.819 61.5781 35.1289C61.3307 34.4258 61.207 33.6771 61.207 32.8828C61.207 32.2188 61.2982 31.5872 61.4805 30.9883C61.6758 30.3893 61.9427 29.8359 62.2812 29.3281C62.6198 28.8073 63.0234 28.332 63.4922 27.9023C63.9609 27.4596 64.4688 27.0625 65.0156 26.7109L65.25 26.8867C64.7031 27.5247 64.2734 28.2279 63.9609 28.9961C63.6484 29.7643 63.4922 30.5781 63.4922 31.4375C63.4922 32.0625 63.5833 32.7005 63.7656 33.3516C63.9609 33.9896 64.2409 34.5755 64.6055 35.1094C64.9701 35.6432 65.4258 36.0794 65.9727 36.418C66.5195 36.7565 67.1445 36.9258 67.8477 36.9258C68.2904 36.9258 68.707 36.8346 69.0977 36.6523C69.4883 36.4701 69.8268 36.2227 70.1133 35.9102C70.4128 35.5977 70.6471 35.2461 70.8164 34.8555C70.9987 34.4518 71.0898 34.0352 71.0898 33.6055C71.0898 33.1888 71.0247 32.7852 70.8945 32.3945C70.7773 31.9909 70.6081 31.6198 70.3867 31.2812C70.1654 30.9297 69.8984 30.6172 69.5859 30.3438C69.2734 30.0573 68.9349 29.8229 68.5703 29.6406C68.362 29.5365 68.1602 29.4583 67.9648 29.4062C67.7826 29.3542 67.5807 29.2956 67.3594 29.2305C67.2682 29.2174 67.1706 29.1979 67.0664 29.1719C66.9622 29.1328 66.8646 29.0938 66.7734 29.0547C66.6823 29.0026 66.6042 28.9375 66.5391 28.8594C66.474 28.7812 66.4414 28.6836 66.4414 28.5664C66.4414 28.332 66.526 28.1172 66.6953 27.9219C66.8646 27.7266 67.0664 27.5573 67.3008 27.4141C67.5352 27.2578 67.7826 27.1406 68.043 27.0625C68.3034 26.9714 68.5312 26.9258 68.7266 26.9258C69.3906 26.9258 69.9766 27.0951 70.4844 27.4336C70.9922 27.7721 71.4154 28.2018 71.7539 28.7227C72.0924 29.2435 72.3464 29.8164 72.5156 30.4414C72.6849 31.0664 72.7695 31.6654 72.7695 32.2383ZM86.8906 35.207C86.5521 35.7018 86.1419 36.1641 85.6602 36.5938C85.1914 37.0234 84.6706 37.3945 84.0977 37.707C83.5378 38.0195 82.9453 38.2669 82.3203 38.4492C81.7083 38.6315 81.0898 38.7227 80.4648 38.7227C79.5794 38.7227 78.7526 38.6055 77.9844 38.3711C77.2161 38.1497 76.5456 37.8047 75.9727 37.3359C75.3997 36.8672 74.9505 36.2812 74.625 35.5781C74.2995 34.862 74.1367 34.0286 74.1367 33.0781C74.1367 32.1406 74.306 31.2682 74.6445 30.4609C74.9961 29.6406 75.4714 28.931 76.0703 28.332C76.6823 27.7201 77.3984 27.2383 78.2188 26.8867C79.0391 26.5352 79.918 26.3594 80.8555 26.3594C81.2982 26.3594 81.7083 26.4245 82.0859 26.5547C82.4766 26.6719 82.8151 26.8542 83.1016 27.1016C83.388 27.3359 83.6094 27.6289 83.7656 27.9805C83.9349 28.332 84.0195 28.7357 84.0195 29.1914C84.0195 29.7383 83.9089 30.2201 83.6875 30.6367C83.4661 31.0534 83.1732 31.418 82.8086 31.7305C82.444 32.043 82.0273 32.3034 81.5586 32.5117C81.1029 32.7201 80.6211 32.8893 80.1133 33.0195C79.6185 33.1497 79.1237 33.2474 78.6289 33.3125C78.1471 33.3646 77.7044 33.3906 77.3008 33.3906H76.832C77.0013 34.5755 77.4701 35.4805 78.2383 36.1055C79.0065 36.7305 80.0677 37.043 81.4219 37.043C82.3854 37.043 83.3229 36.8737 84.2344 36.5352C85.1589 36.1966 85.9922 35.7279 86.7344 35.1289L86.8906 35.207ZM76.7734 32.8047H77.2617C77.7305 32.8047 78.2122 32.7331 78.707 32.5898C79.2018 32.4336 79.6445 32.2122 80.0352 31.9258C80.4388 31.6263 80.7708 31.2617 81.0312 30.832C81.2917 30.4023 81.4219 29.9141 81.4219 29.3672C81.4219 28.8333 81.3047 28.3906 81.0703 28.0391C80.849 27.6875 80.4583 27.5117 79.8984 27.5117C79.3255 27.5117 78.8372 27.6875 78.4336 28.0391C78.043 28.3776 77.724 28.8008 77.4766 29.3086C77.2292 29.8034 77.0469 30.3307 76.9297 30.8906C76.8255 31.4375 76.7734 31.9258 76.7734 32.3555V32.8047ZM104.137 15.8711C104.137 16.0013 104.117 16.1185 104.078 16.2227C104.052 16.3138 104.02 16.4115 103.98 16.5156C103.759 17.0365 103.525 17.5508 103.277 18.0586C103.03 18.5534 102.835 19.0807 102.691 19.6406C102.21 21.5938 101.845 23.5664 101.598 25.5586C101.363 27.5508 101.207 29.556 101.129 31.5742C101.975 31.7565 102.73 32.056 103.395 32.4727C104.072 32.8893 104.729 33.3841 105.367 33.957C106.604 33.4362 107.724 32.7852 108.727 32.0039C109.742 31.2227 110.608 30.3242 111.324 29.3086C112.04 28.293 112.594 27.1667 112.984 25.9297C113.375 24.6927 113.57 23.3711 113.57 21.9648C113.57 21.1836 113.453 20.3893 113.219 19.582C112.997 18.7617 112.678 17.9674 112.262 17.1992C111.858 16.431 111.37 15.7083 110.797 15.0312C110.237 14.3542 109.612 13.7682 108.922 13.2734C108.232 12.7656 107.49 12.3685 106.695 12.082C105.914 11.7826 105.1 11.6328 104.254 11.6328C103.447 11.6328 102.607 11.7826 101.734 12.082C100.875 12.3815 100.087 12.8047 99.3711 13.3516C98.6549 13.8854 98.069 14.5299 97.6133 15.2852C97.1576 16.0404 96.9297 16.8672 96.9297 17.7656C96.9297 18.1172 96.9688 18.4362 97.0469 18.7227C97.138 18.9961 97.2292 19.25 97.3203 19.4844C97.4245 19.7188 97.5156 19.9401 97.5938 20.1484C97.6849 20.3438 97.7305 20.5456 97.7305 20.7539C97.7305 21.1315 97.6003 21.4505 97.3398 21.7109C97.0924 21.9583 96.7865 22.082 96.4219 22.082C96.0833 22.082 95.8164 21.9909 95.6211 21.8086C95.4258 21.6263 95.2695 21.3984 95.1523 21.125C95.0482 20.8516 94.9766 20.5651 94.9375 20.2656C94.9115 19.9531 94.8984 19.6797 94.8984 19.4453C94.8984 18.2995 95.1719 17.2643 95.7188 16.3398C96.2656 15.4154 96.9688 14.582 97.8281 13.8398C98.375 13.3711 98.9219 12.9609 99.4688 12.6094C100.029 12.2578 100.602 11.9583 101.188 11.7109C101.786 11.4635 102.405 11.2812 103.043 11.1641C103.681 11.0339 104.365 10.9688 105.094 10.9688C106.135 10.9688 107.138 11.099 108.102 11.3594C109.078 11.6198 109.99 11.9909 110.836 12.4727C111.695 12.9544 112.477 13.5339 113.18 14.2109C113.896 14.888 114.508 15.6432 115.016 16.4766C115.523 17.3099 115.914 18.2148 116.188 19.1914C116.474 20.1549 116.617 21.1706 116.617 22.2383C116.617 23.8138 116.331 25.2656 115.758 26.5938C115.198 27.9219 114.436 29.1133 113.473 30.168C112.509 31.2096 111.389 32.1146 110.113 32.8828C108.837 33.638 107.496 34.2305 106.09 34.6602C106.233 34.8034 106.37 34.9401 106.5 35.0703C106.643 35.2005 106.786 35.3372 106.93 35.4805C107.711 36.2487 108.486 37.0625 109.254 37.9219C110.035 38.7812 110.836 39.6341 111.656 40.4805C112.477 41.3268 113.323 42.1341 114.195 42.9023C115.068 43.6836 115.992 44.3672 116.969 44.9531C117.945 45.5521 118.98 46.0273 120.074 46.3789C121.181 46.7305 122.366 46.9062 123.629 46.9062C123.85 46.9062 124.059 46.8932 124.254 46.8672C124.462 46.8542 124.677 46.8151 124.898 46.75L124.996 47.1406C124.423 47.4401 123.818 47.6549 123.18 47.7852C122.542 47.9154 121.891 47.9805 121.227 47.9805C119.846 47.9805 118.59 47.8372 117.457 47.5508C116.324 47.2773 115.276 46.8867 114.312 46.3789C113.349 45.8711 112.457 45.2591 111.637 44.543C110.816 43.8398 110.029 43.0651 109.273 42.2188C108.518 41.3724 107.776 40.4674 107.047 39.5039C106.331 38.5534 105.589 37.5703 104.82 36.5547C104.651 36.3333 104.482 36.112 104.312 35.8906C104.156 35.6562 104 35.4284 103.844 35.207C103.375 35.2852 102.906 35.3503 102.438 35.4023C101.982 35.4414 101.526 35.4674 101.07 35.4805C101.07 37.069 101.109 38.638 101.188 40.1875C101.266 41.737 101.357 43.2604 101.461 44.7578L101.09 44.875C100.556 43.4948 100.146 41.9844 99.8594 40.3438C99.5859 38.7031 99.3776 37.0495 99.2344 35.3828C98.8958 35.3307 98.5638 35.2591 98.2383 35.168C97.9128 35.0768 97.6133 34.9531 97.3398 34.7969C97.0794 34.6276 96.8646 34.4258 96.6953 34.1914C96.5391 33.944 96.4609 33.651 96.4609 33.3125C96.4609 33 96.5391 32.7331 96.6953 32.5117C96.8516 32.2773 97.0534 32.0885 97.3008 31.9453C97.5612 31.7891 97.8411 31.6719 98.1406 31.5938C98.4401 31.5026 98.7396 31.444 99.0391 31.418C99.026 31.0534 99.0195 30.6953 99.0195 30.3438C99.0195 29.9792 99.0195 29.6276 99.0195 29.2891C99.0195 28.7552 99.0195 28.0911 99.0195 27.2969C99.0326 26.5026 99.0651 25.6562 99.1172 24.7578C99.1823 23.8594 99.2799 22.9479 99.4102 22.0234C99.5404 21.0859 99.7161 20.207 99.9375 19.3867C100.172 18.5664 100.465 17.8372 100.816 17.1992C101.181 16.5612 101.624 16.0924 102.145 15.793C102.34 15.6758 102.555 15.5716 102.789 15.4805C103.023 15.3763 103.271 15.3242 103.531 15.3242C103.935 15.3242 104.137 15.5065 104.137 15.8711ZM97.1445 33.3906C97.1445 33.5729 97.2031 33.7357 97.3203 33.8789C97.4375 34.0221 97.5938 34.1523 97.7891 34.2695C97.9844 34.3737 98.1992 34.4648 98.4336 34.543C98.681 34.6211 98.9349 34.6862 99.1953 34.7383C99.1693 34.2956 99.1432 33.8594 99.1172 33.4297C99.1042 32.987 99.0846 32.5508 99.0586 32.1211C98.8372 32.1211 98.6094 32.1341 98.375 32.1602C98.1536 32.1862 97.9518 32.2448 97.7695 32.3359C97.5872 32.4271 97.4375 32.5573 97.3203 32.7266C97.2031 32.8828 97.1445 33.1042 97.1445 33.3906ZM101.07 34.9141C101.474 34.9141 101.871 34.888 102.262 34.8359C102.652 34.7839 103.036 34.7122 103.414 34.6211C103.089 34.1784 102.737 33.7747 102.359 33.4102C101.995 33.0326 101.572 32.7331 101.09 32.5117C101.077 32.9154 101.07 33.319 101.07 33.7227C101.07 34.1133 101.07 34.5104 101.07 34.9141ZM126.227 27.7656C126.227 27.9089 126.174 28.0391 126.07 28.1562C125.966 28.2604 125.842 28.3125 125.699 28.3125C125.582 28.3125 125.458 28.2799 125.328 28.2148C125.198 28.1367 125.048 28.0521 124.879 27.9609C124.723 27.8698 124.534 27.7917 124.312 27.7266C124.104 27.6484 123.863 27.6094 123.59 27.6094C122.952 27.6094 122.379 27.8112 121.871 28.2148C121.376 28.6055 120.953 29.0938 120.602 29.6797C120.263 30.2656 120.003 30.8906 119.82 31.5547C119.638 32.2188 119.547 32.8177 119.547 33.3516C119.547 33.7292 119.579 34.1003 119.645 34.4648C119.71 34.8164 119.82 35.1419 119.977 35.4414C120.146 35.7279 120.374 35.9622 120.66 36.1445C120.947 36.3138 121.311 36.3984 121.754 36.3984C122.223 36.3984 122.672 36.3138 123.102 36.1445C123.531 35.9622 123.935 35.7279 124.312 35.4414C124.326 35.0247 124.391 34.5885 124.508 34.1328C124.638 33.6641 124.801 33.2083 124.996 32.7656C125.191 32.3099 125.413 31.8802 125.66 31.4766C125.921 31.0729 126.188 30.7148 126.461 30.4023L126.715 30.5586C126.572 31.0013 126.467 31.457 126.402 31.9258C126.337 32.3945 126.305 32.8568 126.305 33.3125C126.305 33.7812 126.344 34.224 126.422 34.6406C126.5 35.0573 126.637 35.4219 126.832 35.7344C127.027 36.0339 127.294 36.2747 127.633 36.457C127.971 36.6263 128.408 36.7109 128.941 36.7109C129.592 36.7109 130.191 36.5612 130.738 36.2617C131.285 35.9622 131.767 35.5846 132.184 35.1289L132.34 35.207C132.105 35.6628 131.799 36.099 131.422 36.5156C131.044 36.9323 130.621 37.3099 130.152 37.6484C129.697 37.974 129.208 38.2344 128.688 38.4297C128.167 38.625 127.652 38.7227 127.145 38.7227C126.428 38.7227 125.842 38.5143 125.387 38.0977C124.931 37.694 124.618 37.1797 124.449 36.5547C123.902 37.1016 123.29 37.5638 122.613 37.9414C121.949 38.306 121.246 38.4883 120.504 38.4883C119.957 38.4883 119.469 38.3841 119.039 38.1758C118.622 37.9805 118.271 37.7135 117.984 37.375C117.698 37.0365 117.477 36.6393 117.32 36.1836C117.177 35.7148 117.105 35.2266 117.105 34.7188C117.105 34.1328 117.197 33.5339 117.379 32.9219C117.574 32.2969 117.835 31.6849 118.16 31.0859C118.499 30.487 118.896 29.9206 119.352 29.3867C119.807 28.8529 120.302 28.3841 120.836 27.9805C121.383 27.5768 121.956 27.2578 122.555 27.0234C123.154 26.7891 123.766 26.6719 124.391 26.6719C124.534 26.6719 124.71 26.6914 124.918 26.7305C125.126 26.7565 125.328 26.8086 125.523 26.8867C125.719 26.9648 125.882 27.0755 126.012 27.2188C126.155 27.362 126.227 27.5443 126.227 27.7656ZM142.32 33.8008C142.32 34.4779 142.197 35.1159 141.949 35.7148C141.702 36.3138 141.357 36.8346 140.914 37.2773C140.471 37.7201 139.951 38.0716 139.352 38.332C138.766 38.5924 138.128 38.7227 137.438 38.7227C136.982 38.7227 136.533 38.651 136.09 38.5078C135.647 38.3646 135.237 38.1628 134.859 37.9023C134.495 37.6289 134.176 37.3034 133.902 36.9258C133.629 36.5482 133.434 36.1315 133.316 35.6758L133.766 35.5586C134.104 35.9753 134.495 36.3203 134.938 36.5938C135.393 36.8672 135.908 37.0039 136.48 37.0039C136.962 37.0039 137.405 36.8997 137.809 36.6914C138.225 36.4831 138.577 36.2096 138.863 35.8711C139.163 35.5326 139.391 35.1419 139.547 34.6992C139.716 34.2435 139.801 33.7812 139.801 33.3125C139.801 32.7526 139.723 32.2904 139.566 31.9258C139.41 31.5482 139.202 31.2357 138.941 30.9883C138.694 30.7279 138.414 30.5065 138.102 30.3242C137.789 30.1289 137.47 29.9336 137.145 29.7383C136.832 29.543 136.526 29.3216 136.227 29.0742C135.94 28.8268 135.693 28.5078 135.484 28.1172C135.471 28.8854 135.341 29.6927 135.094 30.5391C134.846 31.3854 134.508 32.2057 134.078 33C133.661 33.7943 133.18 34.5365 132.633 35.2266C132.086 35.9167 131.507 36.4961 130.895 36.9648L130.738 36.6914C131.155 36.2487 131.52 35.6953 131.832 35.0312C132.145 34.3672 132.398 33.6706 132.594 32.9414C132.802 32.1992 132.952 31.457 133.043 30.7148C133.147 29.9727 133.199 29.2956 133.199 28.6836C133.199 28.3581 133.167 28.0391 133.102 27.7266C133.036 27.4141 133.004 27.1081 133.004 26.8086C133.004 26.444 133.108 26.1641 133.316 25.9688C133.538 25.7734 133.818 25.6758 134.156 25.6758C134.417 25.6758 134.625 25.7344 134.781 25.8516C134.938 25.9688 135.081 26.125 135.211 26.3203C135.341 26.5026 135.471 26.7174 135.602 26.9648C135.732 27.1992 135.895 27.4466 136.09 27.707C136.298 27.9544 136.552 28.2018 136.852 28.4492C137.164 28.6836 137.561 28.8919 138.043 29.0742C138.603 29.2826 139.137 29.5234 139.645 29.7969C140.165 30.0573 140.621 30.3698 141.012 30.7344C141.415 31.099 141.734 31.5352 141.969 32.043C142.203 32.5378 142.32 33.1237 142.32 33.8008ZM153.297 27.7656C153.297 27.9089 153.245 28.0391 153.141 28.1562C153.036 28.2604 152.913 28.3125 152.77 28.3125C152.652 28.3125 152.529 28.2799 152.398 28.2148C152.268 28.1367 152.118 28.0521 151.949 27.9609C151.793 27.8698 151.604 27.7917 151.383 27.7266C151.174 27.6484 150.934 27.6094 150.66 27.6094C150.022 27.6094 149.449 27.8112 148.941 28.2148C148.447 28.6055 148.023 29.0938 147.672 29.6797C147.333 30.2656 147.073 30.8906 146.891 31.5547C146.708 32.2188 146.617 32.8177 146.617 33.3516C146.617 33.7292 146.65 34.1003 146.715 34.4648C146.78 34.8164 146.891 35.1419 147.047 35.4414C147.216 35.7279 147.444 35.9622 147.73 36.1445C148.017 36.3138 148.382 36.3984 148.824 36.3984C149.293 36.3984 149.742 36.3138 150.172 36.1445C150.602 35.9622 151.005 35.7279 151.383 35.4414C151.396 35.0247 151.461 34.5885 151.578 34.1328C151.708 33.6641 151.871 33.2083 152.066 32.7656C152.262 32.3099 152.483 31.8802 152.73 31.4766C152.991 31.0729 153.258 30.7148 153.531 30.4023L153.785 30.5586C153.642 31.0013 153.538 31.457 153.473 31.9258C153.408 32.3945 153.375 32.8568 153.375 33.3125C153.375 33.7812 153.414 34.224 153.492 34.6406C153.57 35.0573 153.707 35.4219 153.902 35.7344C154.098 36.0339 154.365 36.2747 154.703 36.457C155.042 36.6263 155.478 36.7109 156.012 36.7109C156.663 36.7109 157.262 36.5612 157.809 36.2617C158.355 35.9622 158.837 35.5846 159.254 35.1289L159.41 35.207C159.176 35.6628 158.87 36.099 158.492 36.5156C158.115 36.9323 157.691 37.3099 157.223 37.6484C156.767 37.974 156.279 38.2344 155.758 38.4297C155.237 38.625 154.723 38.7227 154.215 38.7227C153.499 38.7227 152.913 38.5143 152.457 38.0977C152.001 37.694 151.689 37.1797 151.52 36.5547C150.973 37.1016 150.361 37.5638 149.684 37.9414C149.02 38.306 148.316 38.4883 147.574 38.4883C147.027 38.4883 146.539 38.3841 146.109 38.1758C145.693 37.9805 145.341 37.7135 145.055 37.375C144.768 37.0365 144.547 36.6393 144.391 36.1836C144.247 35.7148 144.176 35.2266 144.176 34.7188C144.176 34.1328 144.267 33.5339 144.449 32.9219C144.645 32.2969 144.905 31.6849 145.23 31.0859C145.569 30.487 145.966 29.9206 146.422 29.3867C146.878 28.8529 147.372 28.3841 147.906 27.9805C148.453 27.5768 149.026 27.2578 149.625 27.0234C150.224 26.7891 150.836 26.6719 151.461 26.6719C151.604 26.6719 151.78 26.6914 151.988 26.7305C152.197 26.7565 152.398 26.8086 152.594 26.8867C152.789 26.9648 152.952 27.0755 153.082 27.2188C153.225 27.362 153.297 27.5443 153.297 27.7656Z" fill="black" fill-opacity="0.4"/>
<path d="M14.1719 8.07031C14.1198 8.2526 14.0677 8.48698 14.0156 8.77344C13.9766 9.04688 13.931 9.35286 13.8789 9.69141C14.8294 9.76953 15.8125 9.8737 16.8281 10.0039C17.8568 10.1341 18.8594 10.3034 19.8359 10.5117C20.8125 10.707 21.7435 10.9414 22.6289 11.2148C23.5273 11.4753 24.3346 11.7747 25.0508 12.1133L24.8945 12.4844C23.4622 12.3021 22.0299 12.1784 20.5977 12.1133C19.1784 12.0352 17.7591 11.9961 16.3398 11.9961C15.8841 11.9961 15.4219 12.0091 14.9531 12.0352C14.4974 12.0612 14.0352 12.0872 13.5664 12.1133C13.4622 13.0768 13.3581 14.151 13.2539 15.3359C13.1497 16.5078 13.0521 17.7448 12.9609 19.0469C12.8828 20.349 12.8112 21.6966 12.7461 23.0898C12.694 24.4701 12.6549 25.8568 12.6289 27.25C12.6029 28.6302 12.5964 29.9909 12.6094 31.332C12.6354 32.6602 12.6875 33.9297 12.7656 35.1406C12.8438 36.3385 12.9544 37.4518 13.0977 38.4805C13.2409 39.5091 13.4232 40.401 13.6445 41.1562C13.6706 41.2734 13.7031 41.3906 13.7422 41.5078C13.7943 41.638 13.8203 41.7617 13.8203 41.8789C13.8203 42.0872 13.7682 42.25 13.6641 42.3672C13.5599 42.4974 13.3971 42.5625 13.1758 42.5625C12.8893 42.5625 12.6029 42.4844 12.3164 42.3281C12.043 42.1719 11.7956 42.0221 11.5742 41.8789C11.1836 41.6185 10.8841 41.2018 10.6758 40.6289C10.4674 40.056 10.3177 39.4375 10.2266 38.7734C10.1354 38.1094 10.0833 37.4583 10.0703 36.8203C10.0573 36.1823 10.0508 35.6549 10.0508 35.2383C10.0508 34.2487 10.0703 33.1549 10.1094 31.957C10.1615 30.7591 10.2266 29.5026 10.3047 28.1875C10.3958 26.8594 10.5065 25.4987 10.6367 24.1055C10.7669 22.6992 10.9232 21.3125 11.1055 19.9453C11.2878 18.5651 11.4896 17.2174 11.7109 15.9023C11.9453 14.5872 12.2057 13.3503 12.4922 12.1914C11.5286 12.2565 10.5651 12.3477 9.60156 12.4648C8.65104 12.569 7.72005 12.6992 6.80859 12.8555C5.91016 13.0117 5.04427 13.1875 4.21094 13.3828C3.39062 13.5651 2.62891 13.7734 1.92578 14.0078C1.76953 14.0859 1.60026 14.125 1.41797 14.125C1.04036 14.125 0.851562 13.9362 0.851562 13.5586C0.851562 13.2982 0.923177 13.0312 1.06641 12.7578C1.20964 12.4844 1.35286 12.2435 1.49609 12.0352C1.71745 11.7227 2.04948 11.4492 2.49219 11.2148C2.92188 10.9674 3.41667 10.7526 3.97656 10.5703C4.54948 10.375 5.14844 10.2188 5.77344 10.1016C6.41146 9.97135 7.02995 9.86719 7.62891 9.78906C8.22786 9.69792 8.78776 9.63932 9.30859 9.61328C9.84245 9.57422 10.2786 9.55469 10.6172 9.55469C11.0078 9.55469 11.418 9.56771 11.8477 9.59375C12.2773 9.60677 12.7201 9.6263 13.1758 9.65234C13.3841 9.0013 13.599 8.42188 13.8203 7.91406L14.1719 8.07031ZM26.0859 25.7656C26.0859 25.9089 26.0339 26.0391 25.9297 26.1562C25.8255 26.2604 25.7018 26.3125 25.5586 26.3125C25.4414 26.3125 25.3177 26.2799 25.1875 26.2148C25.0573 26.1367 24.9076 26.0521 24.7383 25.9609C24.582 25.8698 24.3932 25.7917 24.1719 25.7266C23.9635 25.6484 23.7227 25.6094 23.4492 25.6094C22.8112 25.6094 22.2383 25.8112 21.7305 26.2148C21.2357 26.6055 20.8125 27.0938 20.4609 27.6797C20.1224 28.2656 19.862 28.8906 19.6797 29.5547C19.4974 30.2188 19.4062 30.8177 19.4062 31.3516C19.4062 31.7292 19.4388 32.1003 19.5039 32.4648C19.569 32.8164 19.6797 33.1419 19.8359 33.4414C20.0052 33.7279 20.2331 33.9622 20.5195 34.1445C20.806 34.3138 21.1706 34.3984 21.6133 34.3984C22.082 34.3984 22.5312 34.3138 22.9609 34.1445C23.3906 33.9622 23.7943 33.7279 24.1719 33.4414C24.1849 33.0247 24.25 32.5885 24.3672 32.1328C24.4974 31.6641 24.6602 31.2083 24.8555 30.7656C25.0508 30.3099 25.2721 29.8802 25.5195 29.4766C25.7799 29.0729 26.0469 28.7148 26.3203 28.4023L26.5742 28.5586C26.431 29.0013 26.3268 29.457 26.2617 29.9258C26.1966 30.3945 26.1641 30.8568 26.1641 31.3125C26.1641 31.7812 26.2031 32.224 26.2812 32.6406C26.3594 33.0573 26.4961 33.4219 26.6914 33.7344C26.8867 34.0339 27.1536 34.2747 27.4922 34.457C27.8307 34.6263 28.2669 34.7109 28.8008 34.7109C29.4518 34.7109 30.0508 34.5612 30.5977 34.2617C31.1445 33.9622 31.6263 33.5846 32.043 33.1289L32.1992 33.207C31.9648 33.6628 31.6589 34.099 31.2812 34.5156C30.9036 34.9323 30.4805 35.3099 30.0117 35.6484C29.556 35.974 29.0677 36.2344 28.5469 36.4297C28.026 36.625 27.5117 36.7227 27.0039 36.7227C26.2878 36.7227 25.7018 36.5143 25.2461 36.0977C24.7904 35.694 24.4779 35.1797 24.3086 34.5547C23.7617 35.1016 23.1497 35.5638 22.4727 35.9414C21.8086 36.306 21.1055 36.4883 20.3633 36.4883C19.8164 36.4883 19.3281 36.3841 18.8984 36.1758C18.4818 35.9805 18.1302 35.7135 17.8438 35.375C17.5573 35.0365 17.3359 34.6393 17.1797 34.1836C17.0365 33.7148 16.9648 33.2266 16.9648 32.7188C16.9648 32.1328 17.056 31.5339 17.2383 30.9219C17.4336 30.2969 17.694 29.6849 18.0195 29.0859C18.3581 28.487 18.7552 27.9206 19.2109 27.3867C19.6667 26.8529 20.1615 26.3841 20.6953 25.9805C21.2422 25.5768 21.8151 25.2578 22.4141 25.0234C23.013 24.7891 23.625 24.6719 24.25 24.6719C24.3932 24.6719 24.569 24.6914 24.7773 24.7305C24.9857 24.7565 25.1875 24.8086 25.3828 24.8867C25.5781 24.9648 25.7409 25.0755 25.8711 25.2188C26.0143 25.362 26.0859 25.5443 26.0859 25.7656ZM48.1367 33.207C47.8893 33.6758 47.6224 34.125 47.3359 34.5547C47.0625 34.9844 46.75 35.362 46.3984 35.6875C46.0469 36.013 45.6497 36.2734 45.207 36.4688C44.7643 36.6641 44.2565 36.7617 43.6836 36.7617C43.0326 36.7617 42.4727 36.599 42.0039 36.2734C41.5352 35.9609 41.1315 35.5443 40.793 35.0234C40.4674 34.4896 40.2005 33.8841 39.9922 33.207C39.7969 32.5299 39.6341 31.8398 39.5039 31.1367C39.3737 30.4336 39.276 29.7435 39.2109 29.0664C39.1458 28.3763 39.0872 27.7578 39.0352 27.2109C38.7878 27.4062 38.4883 27.7839 38.1367 28.3438C37.7852 28.8906 37.4271 29.5352 37.0625 30.2773C36.6979 31.0195 36.3464 31.8268 36.0078 32.6992C35.6823 33.5716 35.4154 34.431 35.207 35.2773C35.168 35.4596 35.1029 35.6484 35.0117 35.8438C34.9336 36.0391 34.8294 36.2148 34.6992 36.3711C34.582 36.5404 34.4388 36.6771 34.2695 36.7812C34.1003 36.8984 33.9115 36.957 33.7031 36.957C33.3646 36.957 33.1172 36.8398 32.9609 36.6055C32.8177 36.3711 32.7135 36.1042 32.6484 35.8047C32.2708 34.151 32.0039 32.569 31.8477 31.0586C31.7044 29.5482 31.6328 28.0378 31.6328 26.5273C31.6328 26.1628 31.6914 25.8503 31.8086 25.5898C31.9388 25.3164 32.1081 25.0951 32.3164 24.9258C32.5247 24.7435 32.7721 24.6133 33.0586 24.5352C33.3451 24.444 33.6445 24.3984 33.957 24.3984C33.9961 24.3984 34.0547 24.3984 34.1328 24.3984C34.224 24.3984 34.3086 24.4115 34.3867 24.4375C34.4648 24.4505 34.5299 24.4766 34.582 24.5156C34.6341 24.5547 34.6536 24.6068 34.6406 24.6719C34.3021 26.3776 34.1393 28.1159 34.1523 29.8867C34.1654 31.6445 34.2565 33.3372 34.4258 34.9648C34.569 34.3138 34.7773 33.5781 35.0508 32.7578C35.3372 31.9245 35.6628 31.0911 36.0273 30.2578C36.4049 29.4115 36.8086 28.6107 37.2383 27.8555C37.681 27.0872 38.1302 26.4427 38.5859 25.9219C38.8073 25.6745 39.0286 25.4661 39.25 25.2969C39.4844 25.1146 39.7708 25.0234 40.1094 25.0234C40.3047 25.0234 40.4674 25.0625 40.5977 25.1406C40.7279 25.2188 40.832 25.3164 40.9102 25.4336C41.0013 25.5508 41.0664 25.6875 41.1055 25.8438C41.1576 25.987 41.1966 26.1302 41.2227 26.2734C41.2878 26.651 41.3529 27.1393 41.418 27.7383C41.4831 28.3372 41.5612 28.9753 41.6523 29.6523C41.7565 30.3294 41.8802 31.013 42.0234 31.7031C42.1667 32.3802 42.349 32.9987 42.5703 33.5586C42.7917 34.1055 43.0586 34.5547 43.3711 34.9062C43.6836 35.2578 44.0547 35.4336 44.4844 35.4336C44.8359 35.4336 45.1745 35.3685 45.5 35.2383C45.8385 35.0951 46.1576 34.9193 46.457 34.7109C46.7565 34.4896 47.0365 34.2422 47.2969 33.9688C47.5573 33.6823 47.7917 33.4023 48 33.1289L48.1367 33.207ZM59.4648 41.918C59.4648 42.6602 59.3932 43.4023 59.25 44.1445C59.1068 44.8867 58.8919 45.6029 58.6055 46.293C58.332 46.9961 57.987 47.6471 57.5703 48.2461C57.1536 48.8581 56.6784 49.3854 56.1445 49.8281C55.6107 50.2708 55.0117 50.6224 54.3477 50.8828C53.6966 51.1432 52.987 51.2734 52.2188 51.2734C51.5026 51.2734 50.8255 51.1302 50.1875 50.8438C49.5495 50.5573 48.9896 50.1732 48.5078 49.6914C48.0391 49.2096 47.668 48.6432 47.3945 47.9922C47.1211 47.3542 46.9844 46.6771 46.9844 45.9609C46.9844 45.1797 47.1406 44.431 47.4531 43.7148C47.7786 42.9987 48.2018 42.3411 48.7227 41.7422C49.2435 41.1432 49.8294 40.6159 50.4805 40.1602C51.1445 39.7044 51.8216 39.3464 52.5117 39.0859L52.6289 39.3203C51.3659 40.0104 50.3893 40.9414 49.6992 42.1133C49.0091 43.2852 48.6641 44.5938 48.6641 46.0391C48.6641 46.625 48.7422 47.1849 48.8984 47.7188C49.0677 48.2656 49.3151 48.7474 49.6406 49.1641C49.9661 49.5807 50.3698 49.9128 50.8516 50.1602C51.3464 50.4206 51.9128 50.5508 52.5508 50.5508C53.4362 50.5508 54.1719 50.3099 54.7578 49.8281C55.3438 49.3464 55.8125 48.7409 56.1641 48.0117C56.5156 47.2956 56.763 46.5143 56.9062 45.668C57.0625 44.8216 57.1406 44.0273 57.1406 43.2852C57.1406 42.4909 57.0755 41.7096 56.9453 40.9414C56.8281 40.1732 56.6784 39.4049 56.4961 38.6367C56.3268 37.8685 56.151 37.1003 55.9688 36.332C55.7865 35.5638 55.6367 34.7891 55.5195 34.0078C55.2461 34.3333 54.9531 34.6458 54.6406 34.9453C54.3281 35.2318 53.9896 35.4857 53.625 35.707C53.2734 35.9154 52.8958 36.0781 52.4922 36.1953C52.0885 36.3255 51.6654 36.3906 51.2227 36.3906C50.5586 36.3906 49.9727 36.2669 49.4648 36.0195C48.9701 35.7852 48.5534 35.4596 48.2148 35.043C47.8763 34.6263 47.6159 34.1445 47.4336 33.5977C47.2643 33.0508 47.1797 32.4648 47.1797 31.8398C47.1797 31.1367 47.2773 30.4466 47.4727 29.7695C47.668 29.0924 47.9414 28.4544 48.293 27.8555C48.6445 27.2565 49.0612 26.6966 49.543 26.1758C50.0247 25.6549 50.5456 25.1992 51.1055 24.8086L51.3398 24.9258C50.7799 25.7331 50.3372 26.6055 50.0117 27.543C49.6992 28.4674 49.543 29.418 49.543 30.3945C49.543 30.8112 49.5885 31.2604 49.6797 31.7422C49.7708 32.224 49.9141 32.6667 50.1094 33.0703C50.3177 33.474 50.5911 33.8125 50.9297 34.0859C51.2812 34.3464 51.7109 34.4766 52.2188 34.4766C52.8307 34.4766 53.4036 34.3464 53.9375 34.0859C54.4714 33.8125 54.9596 33.4674 55.4023 33.0508C55.3633 32.569 55.3438 32.0872 55.3438 31.6055C55.3438 30.9414 55.3893 30.2513 55.4805 29.5352C55.5716 28.819 55.7344 28.1354 55.9688 27.4844C56.2161 26.8203 56.5482 26.2214 56.9648 25.6875C57.3815 25.1406 57.9219 24.6979 58.5859 24.3594L58.7422 24.4375C58.4297 24.763 58.1693 25.1276 57.9609 25.5312C57.7526 25.9219 57.5833 26.332 57.4531 26.7617C57.3359 27.1914 57.2513 27.6341 57.1992 28.0898C57.1602 28.5326 57.1406 28.9688 57.1406 29.3984C57.1406 30.5964 57.2578 31.7096 57.4922 32.7383C57.7396 33.7669 58.0065 34.776 58.293 35.7656C58.5924 36.7552 58.8594 37.7448 59.0938 38.7344C59.3411 39.737 59.4648 40.7982 59.4648 41.918ZM71.7695 30.2383C71.7695 31.1497 71.6198 31.9961 71.3203 32.7773C71.0208 33.5586 70.5977 34.2357 70.0508 34.8086C69.5039 35.3815 68.8464 35.8307 68.0781 36.1562C67.3229 36.4818 66.4831 36.6445 65.5586 36.6445C64.7383 36.6445 63.9961 36.4883 63.332 36.1758C62.681 35.8763 62.1211 35.4661 61.6523 34.9453C61.1836 34.4245 60.8255 33.819 60.5781 33.1289C60.3307 32.4258 60.207 31.6771 60.207 30.8828C60.207 30.2188 60.2982 29.5872 60.4805 28.9883C60.6758 28.3893 60.9427 27.8359 61.2812 27.3281C61.6198 26.8073 62.0234 26.332 62.4922 25.9023C62.9609 25.4596 63.4688 25.0625 64.0156 24.7109L64.25 24.8867C63.7031 25.5247 63.2734 26.2279 62.9609 26.9961C62.6484 27.7643 62.4922 28.5781 62.4922 29.4375C62.4922 30.0625 62.5833 30.7005 62.7656 31.3516C62.9609 31.9896 63.2409 32.5755 63.6055 33.1094C63.9701 33.6432 64.4258 34.0794 64.9727 34.418C65.5195 34.7565 66.1445 34.9258 66.8477 34.9258C67.2904 34.9258 67.707 34.8346 68.0977 34.6523C68.4883 34.4701 68.8268 34.2227 69.1133 33.9102C69.4128 33.5977 69.6471 33.2461 69.8164 32.8555C69.9987 32.4518 70.0898 32.0352 70.0898 31.6055C70.0898 31.1888 70.0247 30.7852 69.8945 30.3945C69.7773 29.9909 69.6081 29.6198 69.3867 29.2812C69.1654 28.9297 68.8984 28.6172 68.5859 28.3438C68.2734 28.0573 67.9349 27.8229 67.5703 27.6406C67.362 27.5365 67.1602 27.4583 66.9648 27.4062C66.7826 27.3542 66.5807 27.2956 66.3594 27.2305C66.2682 27.2174 66.1706 27.1979 66.0664 27.1719C65.9622 27.1328 65.8646 27.0938 65.7734 27.0547C65.6823 27.0026 65.6042 26.9375 65.5391 26.8594C65.474 26.7812 65.4414 26.6836 65.4414 26.5664C65.4414 26.332 65.526 26.1172 65.6953 25.9219C65.8646 25.7266 66.0664 25.5573 66.3008 25.4141C66.5352 25.2578 66.7826 25.1406 67.043 25.0625C67.3034 24.9714 67.5312 24.9258 67.7266 24.9258C68.3906 24.9258 68.9766 25.0951 69.4844 25.4336C69.9922 25.7721 70.4154 26.2018 70.7539 26.7227C71.0924 27.2435 71.3464 27.8164 71.5156 28.4414C71.6849 29.0664 71.7695 29.6654 71.7695 30.2383ZM85.8906 33.207C85.5521 33.7018 85.1419 34.1641 84.6602 34.5938C84.1914 35.0234 83.6706 35.3945 83.0977 35.707C82.5378 36.0195 81.9453 36.2669 81.3203 36.4492C80.7083 36.6315 80.0898 36.7227 79.4648 36.7227C78.5794 36.7227 77.7526 36.6055 76.9844 36.3711C76.2161 36.1497 75.5456 35.8047 74.9727 35.3359C74.3997 34.8672 73.9505 34.2812 73.625 33.5781C73.2995 32.862 73.1367 32.0286 73.1367 31.0781C73.1367 30.1406 73.306 29.2682 73.6445 28.4609C73.9961 27.6406 74.4714 26.931 75.0703 26.332C75.6823 25.7201 76.3984 25.2383 77.2188 24.8867C78.0391 24.5352 78.918 24.3594 79.8555 24.3594C80.2982 24.3594 80.7083 24.4245 81.0859 24.5547C81.4766 24.6719 81.8151 24.8542 82.1016 25.1016C82.388 25.3359 82.6094 25.6289 82.7656 25.9805C82.9349 26.332 83.0195 26.7357 83.0195 27.1914C83.0195 27.7383 82.9089 28.2201 82.6875 28.6367C82.4661 29.0534 82.1732 29.418 81.8086 29.7305C81.444 30.043 81.0273 30.3034 80.5586 30.5117C80.1029 30.7201 79.6211 30.8893 79.1133 31.0195C78.6185 31.1497 78.1237 31.2474 77.6289 31.3125C77.1471 31.3646 76.7044 31.3906 76.3008 31.3906H75.832C76.0013 32.5755 76.4701 33.4805 77.2383 34.1055C78.0065 34.7305 79.0677 35.043 80.4219 35.043C81.3854 35.043 82.3229 34.8737 83.2344 34.5352C84.1589 34.1966 84.9922 33.7279 85.7344 33.1289L85.8906 33.207ZM75.7734 30.8047H76.2617C76.7305 30.8047 77.2122 30.7331 77.707 30.5898C78.2018 30.4336 78.6445 30.2122 79.0352 29.9258C79.4388 29.6263 79.7708 29.2617 80.0312 28.832C80.2917 28.4023 80.4219 27.9141 80.4219 27.3672C80.4219 26.8333 80.3047 26.3906 80.0703 26.0391C79.849 25.6875 79.4583 25.5117 78.8984 25.5117C78.3255 25.5117 77.8372 25.6875 77.4336 26.0391C77.043 26.3776 76.724 26.8008 76.4766 27.3086C76.2292 27.8034 76.0469 28.3307 75.9297 28.8906C75.8255 29.4375 75.7734 29.9258 75.7734 30.3555V30.8047ZM103.137 13.8711C103.137 14.0013 103.117 14.1185 103.078 14.2227C103.052 14.3138 103.02 14.4115 102.98 14.5156C102.759 15.0365 102.525 15.5508 102.277 16.0586C102.03 16.5534 101.835 17.0807 101.691 17.6406C101.21 19.5938 100.845 21.5664 100.598 23.5586C100.363 25.5508 100.207 27.556 100.129 29.5742C100.975 29.7565 101.73 30.056 102.395 30.4727C103.072 30.8893 103.729 31.3841 104.367 31.957C105.604 31.4362 106.724 30.7852 107.727 30.0039C108.742 29.2227 109.608 28.3242 110.324 27.3086C111.04 26.293 111.594 25.1667 111.984 23.9297C112.375 22.6927 112.57 21.3711 112.57 19.9648C112.57 19.1836 112.453 18.3893 112.219 17.582C111.997 16.7617 111.678 15.9674 111.262 15.1992C110.858 14.431 110.37 13.7083 109.797 13.0312C109.237 12.3542 108.612 11.7682 107.922 11.2734C107.232 10.7656 106.49 10.3685 105.695 10.082C104.914 9.78255 104.1 9.63281 103.254 9.63281C102.447 9.63281 101.607 9.78255 100.734 10.082C99.875 10.3815 99.0872 10.8047 98.3711 11.3516C97.6549 11.8854 97.069 12.5299 96.6133 13.2852C96.1576 14.0404 95.9297 14.8672 95.9297 15.7656C95.9297 16.1172 95.9688 16.4362 96.0469 16.7227C96.138 16.9961 96.2292 17.25 96.3203 17.4844C96.4245 17.7188 96.5156 17.9401 96.5938 18.1484C96.6849 18.3438 96.7305 18.5456 96.7305 18.7539C96.7305 19.1315 96.6003 19.4505 96.3398 19.7109C96.0924 19.9583 95.7865 20.082 95.4219 20.082C95.0833 20.082 94.8164 19.9909 94.6211 19.8086C94.4258 19.6263 94.2695 19.3984 94.1523 19.125C94.0482 18.8516 93.9766 18.5651 93.9375 18.2656C93.9115 17.9531 93.8984 17.6797 93.8984 17.4453C93.8984 16.2995 94.1719 15.2643 94.7188 14.3398C95.2656 13.4154 95.9688 12.582 96.8281 11.8398C97.375 11.3711 97.9219 10.9609 98.4688 10.6094C99.0286 10.2578 99.6016 9.95833 100.188 9.71094C100.786 9.46354 101.405 9.28125 102.043 9.16406C102.681 9.03385 103.365 8.96875 104.094 8.96875C105.135 8.96875 106.138 9.09896 107.102 9.35938C108.078 9.61979 108.99 9.99089 109.836 10.4727C110.695 10.9544 111.477 11.5339 112.18 12.2109C112.896 12.888 113.508 13.6432 114.016 14.4766C114.523 15.3099 114.914 16.2148 115.188 17.1914C115.474 18.1549 115.617 19.1706 115.617 20.2383C115.617 21.8138 115.331 23.2656 114.758 24.5938C114.198 25.9219 113.436 27.1133 112.473 28.168C111.509 29.2096 110.389 30.1146 109.113 30.8828C107.837 31.638 106.496 32.2305 105.09 32.6602C105.233 32.8034 105.37 32.9401 105.5 33.0703C105.643 33.2005 105.786 33.3372 105.93 33.4805C106.711 34.2487 107.486 35.0625 108.254 35.9219C109.035 36.7812 109.836 37.6341 110.656 38.4805C111.477 39.3268 112.323 40.1341 113.195 40.9023C114.068 41.6836 114.992 42.3672 115.969 42.9531C116.945 43.5521 117.98 44.0273 119.074 44.3789C120.181 44.7305 121.366 44.9062 122.629 44.9062C122.85 44.9062 123.059 44.8932 123.254 44.8672C123.462 44.8542 123.677 44.8151 123.898 44.75L123.996 45.1406C123.423 45.4401 122.818 45.6549 122.18 45.7852C121.542 45.9154 120.891 45.9805 120.227 45.9805C118.846 45.9805 117.59 45.8372 116.457 45.5508C115.324 45.2773 114.276 44.8867 113.312 44.3789C112.349 43.8711 111.457 43.2591 110.637 42.543C109.816 41.8398 109.029 41.0651 108.273 40.2188C107.518 39.3724 106.776 38.4674 106.047 37.5039C105.331 36.5534 104.589 35.5703 103.82 34.5547C103.651 34.3333 103.482 34.112 103.312 33.8906C103.156 33.6562 103 33.4284 102.844 33.207C102.375 33.2852 101.906 33.3503 101.438 33.4023C100.982 33.4414 100.526 33.4674 100.07 33.4805C100.07 35.069 100.109 36.638 100.188 38.1875C100.266 39.737 100.357 41.2604 100.461 42.7578L100.09 42.875C99.556 41.4948 99.1458 39.9844 98.8594 38.3438C98.5859 36.7031 98.3776 35.0495 98.2344 33.3828C97.8958 33.3307 97.5638 33.2591 97.2383 33.168C96.9128 33.0768 96.6133 32.9531 96.3398 32.7969C96.0794 32.6276 95.8646 32.4258 95.6953 32.1914C95.5391 31.944 95.4609 31.651 95.4609 31.3125C95.4609 31 95.5391 30.7331 95.6953 30.5117C95.8516 30.2773 96.0534 30.0885 96.3008 29.9453C96.5612 29.7891 96.8411 29.6719 97.1406 29.5938C97.4401 29.5026 97.7396 29.444 98.0391 29.418C98.026 29.0534 98.0195 28.6953 98.0195 28.3438C98.0195 27.9792 98.0195 27.6276 98.0195 27.2891C98.0195 26.7552 98.0195 26.0911 98.0195 25.2969C98.0326 24.5026 98.0651 23.6562 98.1172 22.7578C98.1823 21.8594 98.2799 20.9479 98.4102 20.0234C98.5404 19.0859 98.7161 18.207 98.9375 17.3867C99.1719 16.5664 99.4648 15.8372 99.8164 15.1992C100.181 14.5612 100.624 14.0924 101.145 13.793C101.34 13.6758 101.555 13.5716 101.789 13.4805C102.023 13.3763 102.271 13.3242 102.531 13.3242C102.935 13.3242 103.137 13.5065 103.137 13.8711ZM96.1445 31.3906C96.1445 31.5729 96.2031 31.7357 96.3203 31.8789C96.4375 32.0221 96.5938 32.1523 96.7891 32.2695C96.9844 32.3737 97.1992 32.4648 97.4336 32.543C97.681 32.6211 97.9349 32.6862 98.1953 32.7383C98.1693 32.2956 98.1432 31.8594 98.1172 31.4297C98.1042 30.987 98.0846 30.5508 98.0586 30.1211C97.8372 30.1211 97.6094 30.1341 97.375 30.1602C97.1536 30.1862 96.9518 30.2448 96.7695 30.3359C96.5872 30.4271 96.4375 30.5573 96.3203 30.7266C96.2031 30.8828 96.1445 31.1042 96.1445 31.3906ZM100.07 32.9141C100.474 32.9141 100.871 32.888 101.262 32.8359C101.652 32.7839 102.036 32.7122 102.414 32.6211C102.089 32.1784 101.737 31.7747 101.359 31.4102C100.995 31.0326 100.572 30.7331 100.09 30.5117C100.077 30.9154 100.07 31.319 100.07 31.7227C100.07 32.1133 100.07 32.5104 100.07 32.9141ZM125.227 25.7656C125.227 25.9089 125.174 26.0391 125.07 26.1562C124.966 26.2604 124.842 26.3125 124.699 26.3125C124.582 26.3125 124.458 26.2799 124.328 26.2148C124.198 26.1367 124.048 26.0521 123.879 25.9609C123.723 25.8698 123.534 25.7917 123.312 25.7266C123.104 25.6484 122.863 25.6094 122.59 25.6094C121.952 25.6094 121.379 25.8112 120.871 26.2148C120.376 26.6055 119.953 27.0938 119.602 27.6797C119.263 28.2656 119.003 28.8906 118.82 29.5547C118.638 30.2188 118.547 30.8177 118.547 31.3516C118.547 31.7292 118.579 32.1003 118.645 32.4648C118.71 32.8164 118.82 33.1419 118.977 33.4414C119.146 33.7279 119.374 33.9622 119.66 34.1445C119.947 34.3138 120.311 34.3984 120.754 34.3984C121.223 34.3984 121.672 34.3138 122.102 34.1445C122.531 33.9622 122.935 33.7279 123.312 33.4414C123.326 33.0247 123.391 32.5885 123.508 32.1328C123.638 31.6641 123.801 31.2083 123.996 30.7656C124.191 30.3099 124.413 29.8802 124.66 29.4766C124.921 29.0729 125.188 28.7148 125.461 28.4023L125.715 28.5586C125.572 29.0013 125.467 29.457 125.402 29.9258C125.337 30.3945 125.305 30.8568 125.305 31.3125C125.305 31.7812 125.344 32.224 125.422 32.6406C125.5 33.0573 125.637 33.4219 125.832 33.7344C126.027 34.0339 126.294 34.2747 126.633 34.457C126.971 34.6263 127.408 34.7109 127.941 34.7109C128.592 34.7109 129.191 34.5612 129.738 34.2617C130.285 33.9622 130.767 33.5846 131.184 33.1289L131.34 33.207C131.105 33.6628 130.799 34.099 130.422 34.5156C130.044 34.9323 129.621 35.3099 129.152 35.6484C128.697 35.974 128.208 36.2344 127.688 36.4297C127.167 36.625 126.652 36.7227 126.145 36.7227C125.428 36.7227 124.842 36.5143 124.387 36.0977C123.931 35.694 123.618 35.1797 123.449 34.5547C122.902 35.1016 122.29 35.5638 121.613 35.9414C120.949 36.306 120.246 36.4883 119.504 36.4883C118.957 36.4883 118.469 36.3841 118.039 36.1758C117.622 35.9805 117.271 35.7135 116.984 35.375C116.698 35.0365 116.477 34.6393 116.32 34.1836C116.177 33.7148 116.105 33.2266 116.105 32.7188C116.105 32.1328 116.197 31.5339 116.379 30.9219C116.574 30.2969 116.835 29.6849 117.16 29.0859C117.499 28.487 117.896 27.9206 118.352 27.3867C118.807 26.8529 119.302 26.3841 119.836 25.9805C120.383 25.5768 120.956 25.2578 121.555 25.0234C122.154 24.7891 122.766 24.6719 123.391 24.6719C123.534 24.6719 123.71 24.6914 123.918 24.7305C124.126 24.7565 124.328 24.8086 124.523 24.8867C124.719 24.9648 124.882 25.0755 125.012 25.2188C125.155 25.362 125.227 25.5443 125.227 25.7656ZM141.32 31.8008C141.32 32.4779 141.197 33.1159 140.949 33.7148C140.702 34.3138 140.357 34.8346 139.914 35.2773C139.471 35.7201 138.951 36.0716 138.352 36.332C137.766 36.5924 137.128 36.7227 136.438 36.7227C135.982 36.7227 135.533 36.651 135.09 36.5078C134.647 36.3646 134.237 36.1628 133.859 35.9023C133.495 35.6289 133.176 35.3034 132.902 34.9258C132.629 34.5482 132.434 34.1315 132.316 33.6758L132.766 33.5586C133.104 33.9753 133.495 34.3203 133.938 34.5938C134.393 34.8672 134.908 35.0039 135.48 35.0039C135.962 35.0039 136.405 34.8997 136.809 34.6914C137.225 34.4831 137.577 34.2096 137.863 33.8711C138.163 33.5326 138.391 33.1419 138.547 32.6992C138.716 32.2435 138.801 31.7812 138.801 31.3125C138.801 30.7526 138.723 30.2904 138.566 29.9258C138.41 29.5482 138.202 29.2357 137.941 28.9883C137.694 28.7279 137.414 28.5065 137.102 28.3242C136.789 28.1289 136.47 27.9336 136.145 27.7383C135.832 27.543 135.526 27.3216 135.227 27.0742C134.94 26.8268 134.693 26.5078 134.484 26.1172C134.471 26.8854 134.341 27.6927 134.094 28.5391C133.846 29.3854 133.508 30.2057 133.078 31C132.661 31.7943 132.18 32.5365 131.633 33.2266C131.086 33.9167 130.507 34.4961 129.895 34.9648L129.738 34.6914C130.155 34.2487 130.52 33.6953 130.832 33.0312C131.145 32.3672 131.398 31.6706 131.594 30.9414C131.802 30.1992 131.952 29.457 132.043 28.7148C132.147 27.9727 132.199 27.2956 132.199 26.6836C132.199 26.3581 132.167 26.0391 132.102 25.7266C132.036 25.4141 132.004 25.1081 132.004 24.8086C132.004 24.444 132.108 24.1641 132.316 23.9688C132.538 23.7734 132.818 23.6758 133.156 23.6758C133.417 23.6758 133.625 23.7344 133.781 23.8516C133.938 23.9688 134.081 24.125 134.211 24.3203C134.341 24.5026 134.471 24.7174 134.602 24.9648C134.732 25.1992 134.895 25.4466 135.09 25.707C135.298 25.9544 135.552 26.2018 135.852 26.4492C136.164 26.6836 136.561 26.8919 137.043 27.0742C137.603 27.2826 138.137 27.5234 138.645 27.7969C139.165 28.0573 139.621 28.3698 140.012 28.7344C140.415 29.099 140.734 29.5352 140.969 30.043C141.203 30.5378 141.32 31.1237 141.32 31.8008ZM152.297 25.7656C152.297 25.9089 152.245 26.0391 152.141 26.1562C152.036 26.2604 151.913 26.3125 151.77 26.3125C151.652 26.3125 151.529 26.2799 151.398 26.2148C151.268 26.1367 151.118 26.0521 150.949 25.9609C150.793 25.8698 150.604 25.7917 150.383 25.7266C150.174 25.6484 149.934 25.6094 149.66 25.6094C149.022 25.6094 148.449 25.8112 147.941 26.2148C147.447 26.6055 147.023 27.0938 146.672 27.6797C146.333 28.2656 146.073 28.8906 145.891 29.5547C145.708 30.2188 145.617 30.8177 145.617 31.3516C145.617 31.7292 145.65 32.1003 145.715 32.4648C145.78 32.8164 145.891 33.1419 146.047 33.4414C146.216 33.7279 146.444 33.9622 146.73 34.1445C147.017 34.3138 147.382 34.3984 147.824 34.3984C148.293 34.3984 148.742 34.3138 149.172 34.1445C149.602 33.9622 150.005 33.7279 150.383 33.4414C150.396 33.0247 150.461 32.5885 150.578 32.1328C150.708 31.6641 150.871 31.2083 151.066 30.7656C151.262 30.3099 151.483 29.8802 151.73 29.4766C151.991 29.0729 152.258 28.7148 152.531 28.4023L152.785 28.5586C152.642 29.0013 152.538 29.457 152.473 29.9258C152.408 30.3945 152.375 30.8568 152.375 31.3125C152.375 31.7812 152.414 32.224 152.492 32.6406C152.57 33.0573 152.707 33.4219 152.902 33.7344C153.098 34.0339 153.365 34.2747 153.703 34.457C154.042 34.6263 154.478 34.7109 155.012 34.7109C155.663 34.7109 156.262 34.5612 156.809 34.2617C157.355 33.9622 157.837 33.5846 158.254 33.1289L158.41 33.207C158.176 33.6628 157.87 34.099 157.492 34.5156C157.115 34.9323 156.691 35.3099 156.223 35.6484C155.767 35.974 155.279 36.2344 154.758 36.4297C154.237 36.625 153.723 36.7227 153.215 36.7227C152.499 36.7227 151.913 36.5143 151.457 36.0977C151.001 35.694 150.689 35.1797 150.52 34.5547C149.973 35.1016 149.361 35.5638 148.684 35.9414C148.02 36.306 147.316 36.4883 146.574 36.4883C146.027 36.4883 145.539 36.3841 145.109 36.1758C144.693 35.9805 144.341 35.7135 144.055 35.375C143.768 35.0365 143.547 34.6393 143.391 34.1836C143.247 33.7148 143.176 33.2266 143.176 32.7188C143.176 32.1328 143.267 31.5339 143.449 30.9219C143.645 30.2969 143.905 29.6849 144.23 29.0859C144.569 28.487 144.966 27.9206 145.422 27.3867C145.878 26.8529 146.372 26.3841 146.906 25.9805C147.453 25.5768 148.026 25.2578 148.625 25.0234C149.224 24.7891 149.836 24.6719 150.461 24.6719C150.604 24.6719 150.78 24.6914 150.988 24.7305C151.197 24.7565 151.398 24.8086 151.594 24.8867C151.789 24.9648 151.952 25.0755 152.082 25.2188C152.225 25.362 152.297 25.5443 152.297 25.7656Z" fill="#7F5325"/>
</svg>
